<?xml version="1.0" encoding="UTF-8"?>
<svg width="16px" height="16px" viewBox="0 0 16 16" version="1.1" xmlns="http://www.w3.org/2000/svg" xmlns:xlink="http://www.w3.org/1999/xlink">
    <!-- Background circle -->
    <circle cx="8" cy="8" r="7" fill="#4285F4"/>
    
    <!-- Book icon -->
    <path d="M4,4 L10,4 C10.5523,4 11,4.44772 11,5 L11,11 C11,11.5523 10.5523,12 10,12 L4,12 C3.44772,12 3,11.5523 3,11 L3,5 C3,4.44772 3.44772,4 4,4 Z" fill="white" fill-rule="evenodd"/>
    <path d="M5,5 L9,5 L9,11 L5,11 L5,5 Z M6,6 L8,6 L8,10 L6,10 L6,6 Z" fill="#4285F4" fill-rule="evenodd"/>
    
    <!-- Red diagonal line -->
    <line x1="3" y1="3" x2="13" y2="13" stroke="#FF4444" stroke-width="2" stroke-linecap="round"/>
</svg>
